<?xml version="1.0" encoding="utf-8"?>
<!-- Generator: Adobe Illustrator 17.0.0, SVG Export Plug-In . SVG Version: 6.00 Build 0)  -->
<!DOCTYPE svg PUBLIC "-//W3C//DTD SVG 1.1//EN" "http://www.w3.org/Graphics/SVG/1.1/DTD/svg11.dtd">
<svg version="1.1" id="Ebene_1" xmlns="http://www.w3.org/2000/svg" xmlns:xlink="http://www.w3.org/1999/xlink" x="0px" y="0px"
	 width="75px" height="35px" viewBox="0 0 75 35" enable-background="new 0 0 75 35" xml:space="preserve">
<g>
	<path fill="none" d="M36.82,11.892l-0.256,2.021c0,0,1.651,0.342,1.793-0.996C38.5,11.579,36.82,11.892,36.82,11.892z"/>
	<path fill="none" d="M11.086,17.444l26.899,16.052l26.79-16.052L37.985,1.502L11.086,17.444z M27.538,10.326
		c0,0,2.221,0.029,2.59,0.086c0.37,0.057,2.106,0.541,2.106,2.078s-1.11,2.164-1.11,2.164s1.281,0.541,1.224,2.476
		c-0.057,1.936-2.335,2.164-2.335,2.164l-3.672,0.056L27.538,10.326z M46.212,15.593c3.217,0.028,4.213,1.964,4.213,1.964
		l-1.395,0.911c0,0-0.569-1.196-2.505-1.224c-2.14-0.031-3.075,1.566-3.274,2.932c-0.199,1.366,0.427,3.274,2.619,3.388
		c2.192,0.114,2.875-1.651,2.875-1.651l-2.762-0.085l0.199-1.537l4.498,0.029c0.114,5.095-6.158,6.28-8.341,3.074
		C40.035,20.005,42.996,15.564,46.212,15.593z M40.206,21.883h-14.29v-1.594h14.29V21.883z M40.065,12.49
		c0,1.537-1.11,2.164-1.11,2.164s1.281,0.541,1.224,2.476c-0.057,1.936-2.334,2.164-2.334,2.164l-3.672,0.056l1.196-9.023
		c0,0,2.22,0.029,2.59,0.086C38.329,10.469,40.065,10.953,40.065,12.49z"/>
	<polygon fill="none" points="24.421,8.288 2.927,8.288 2.927,26.37 23.94,26.37 8.977,17.441 	"/>
	<polygon fill="none" points="52.119,26.283 71.906,26.283 71.906,8.21 51.365,8.21 66.877,17.441 	"/>
	<path fill="none" d="M30.63,16.766c0.19-1.755-2.017-1.345-2.017-1.345l-0.249,2.335C28.364,17.756,30.47,18.24,30.63,16.766z"/>
	<path fill="none" d="M30.528,12.917c0.142-1.338-1.537-1.025-1.537-1.025l-0.256,2.021C28.734,13.913,30.385,14.255,30.528,12.917z
		"/>
	<path fill="none" d="M36.443,15.421l-0.249,2.335c0,0,2.106,0.485,2.266-0.99C38.65,15.011,36.443,15.421,36.443,15.421z"/>
	<polygon fill="#FFFFFF" points="25.314,8.288 24.421,8.288 8.977,17.441 23.94,26.37 24.829,26.37 9.869,17.442 	"/>
	<polygon fill="#FFFFFF" points="26.343,7.679 37.986,0.778 38.144,0.873 49.555,7.663 49.555,7.277 49.796,7.277 38.145,0.343 
		37.986,0.249 25.997,7.354 26.343,7.354 	"/>
	<polygon fill="#FFFFFF" points="65.988,17.442 51.233,26.283 52.119,26.283 66.877,17.441 51.365,8.21 50.475,8.21 	"/>
	<polygon fill="#FFFFFF" points="50.255,26.869 37.986,34.221 25.952,27.04 25.952,27.303 25.504,27.303 37.986,34.751 
		50.561,27.217 50.255,27.217 	"/>
	<path fill="#FFFFFF" d="M49.555,7.857l-11.57-6.885l-11.642,6.9v0.416h-0.701l-15.447,9.155l14.959,8.927h0.798v0.476l12.034,7.181
		l12.27-7.351v-0.392h0.653l14.755-8.84L50.148,8.21h-0.593V7.857z M64.775,17.444l-26.79,16.052L11.086,17.444L37.985,1.502
		L64.775,17.444z"/>
	<polygon fill="#FFFFFF" points="10.195,17.443 25.641,8.288 25.314,8.288 9.869,17.442 24.829,26.37 25.154,26.37 	"/>
	<polygon fill="#FFFFFF" points="37.985,0.973 49.555,7.857 49.555,7.663 38.144,0.873 37.986,0.778 26.343,7.679 26.343,7.873 	"/>
	<polygon fill="#FFFFFF" points="37.985,34.026 25.952,26.846 25.952,27.04 37.986,34.221 50.255,26.869 50.255,26.675 	"/>
	<polygon fill="#FFFFFF" points="50.475,8.21 50.148,8.21 65.663,17.443 50.909,26.283 51.233,26.283 65.988,17.442 	"/>
	<path fill="#FFFFFF" d="M32.35,17.129c0.056-1.935-1.224-2.476-1.224-2.476s1.11-0.626,1.11-2.164s-1.737-2.021-2.106-2.078
		c-0.37-0.057-2.59-0.086-2.59-0.086l-1.196,9.023l3.672-0.056C30.015,19.293,32.292,19.065,32.35,17.129z M28.99,11.892
		c0,0,1.68-0.313,1.537,1.025c-0.143,1.338-1.794,0.996-1.794,0.996L28.99,11.892z M28.364,17.756l0.249-2.335
		c0,0,2.207-0.41,2.017,1.345C30.47,18.24,28.364,17.756,28.364,17.756z"/>
	<path fill="#FFFFFF" d="M35.369,10.326l-1.196,9.023l3.672-0.056c0,0,2.277-0.228,2.334-2.164c0.057-1.935-1.224-2.476-1.224-2.476
		s1.11-0.626,1.11-2.164s-1.736-2.021-2.107-2.078C37.589,10.355,35.369,10.326,35.369,10.326z M38.46,16.766
		c-0.159,1.475-2.266,0.99-2.266,0.99l0.249-2.335C36.443,15.421,38.65,15.011,38.46,16.766z M38.357,12.917
		c-0.142,1.338-1.793,0.996-1.793,0.996l0.256-2.021C36.82,11.892,38.5,11.579,38.357,12.917z"/>
	<rect x="25.916" y="20.289" fill="#FFFFFF" width="14.29" height="1.594"/>
	<path fill="#FFFFFF" d="M50.681,20.318l-4.498-0.029l-0.199,1.537l2.762,0.085c0,0-0.683,1.765-2.875,1.651
		c-2.192-0.114-2.818-2.021-2.619-3.388c0.199-1.366,1.134-2.963,3.274-2.932c1.936,0.029,2.505,1.224,2.505,1.224l1.395-0.911
		c0,0-0.996-1.936-4.213-1.964c-3.216-0.029-6.177,4.412-3.871,7.8C44.523,26.598,50.795,25.413,50.681,20.318z"/>
	<polygon fill="#FFFFFF" points="2.927,26.37 2.927,8.288 24.421,8.288 25.997,7.354 1.993,7.354 1.993,27.303 25.504,27.303 
		23.94,26.37 	"/>
	<polygon fill="#FFFFFF" points="25.952,27.04 24.829,26.37 23.94,26.37 25.504,27.303 25.952,27.303 	"/>
	<polygon fill="#FFFFFF" points="25.314,8.288 26.343,7.679 26.343,7.354 25.997,7.354 24.421,8.288 	"/>
	<polygon fill="#FFFFFF" points="26.343,7.873 25.641,8.288 26.343,8.288 	"/>
	<polygon fill="#FFFFFF" points="25.154,26.37 25.952,26.846 25.952,26.37 	"/>
	<polygon fill="#FFFFFF" points="25.154,26.37 24.829,26.37 25.952,27.04 25.952,26.846 	"/>
	<polygon fill="#FFFFFF" points="26.343,7.873 26.343,7.679 25.314,8.288 25.641,8.288 	"/>
	<polygon fill="#FFFFFF" points="72.84,7.277 49.796,7.277 51.365,8.21 71.906,8.21 71.906,26.283 52.119,26.283 50.561,27.217 
		72.84,27.217 	"/>
	<polygon fill="#FFFFFF" points="49.555,7.663 50.475,8.21 51.365,8.21 49.796,7.277 49.555,7.277 	"/>
	<polygon fill="#FFFFFF" points="51.233,26.283 50.255,26.869 50.255,27.217 50.561,27.217 52.119,26.283 	"/>
	<polygon fill="#FFFFFF" points="50.255,26.675 50.909,26.283 50.255,26.283 	"/>
	<polygon fill="#FFFFFF" points="49.555,8.21 50.148,8.21 49.555,7.857 	"/>
	<polygon fill="#FFFFFF" points="50.148,8.21 50.475,8.21 49.555,7.663 49.555,7.857 	"/>
	<polygon fill="#FFFFFF" points="50.255,26.675 50.255,26.869 51.233,26.283 50.909,26.283 	"/>
</g>
</svg>
